<?xml version="1.0" encoding="UTF-8" standalone="no"?>
<!-- Uploaded to: SVG Repo, www.svgrepo.com, Generator: SVG Repo Mixer Tools -->

<svg
   width="800"
   height="800"
   viewBox="0 0 24 24"
   fill="#ffffff"
   version="1.1"
   id="svg3"
   xmlns="http://www.w3.org/2000/svg"
   xmlns:svg="http://www.w3.org/2000/svg">
  <defs
     id="defs3" />
  <path
     fill-rule="evenodd"
     clip-rule="evenodd"
     d="m 11.5,0.999992 c -0.5523,0 -1,0.447718 -1,0.999998 v 1 H 9.99998 c -2.76134,0 -5,2.23825 -5,4.99976 V 11 c 0,0.7377 -0.2328,1.5722 -0.60259,2.4148 -0.36575,0.8334 -0.83864,1.6146 -1.25597,2.2291 -0.75954,1.1185 -0.28927,2.8862 1.26422,3.1664 1.0158,0.1832 2.45137,0.4012 4.14092,0.5424 -0.00202,0.0488 -0.00304,0.0979 -0.00304,0.1473 0,1.933 1.56698,3.5 3.49998,3.5 1.933,0 3.5,-1.567 3.5,-3.5 0,-0.0518 -0.0011,-0.1034 -0.0033,-0.1547 1.6519,-0.1413 3.0558,-0.355 4.0541,-0.535 1.5535,-0.2802 2.0238,-2.0479 1.2643,-3.1664 -0.4174,-0.6145 -0.8903,-1.3957 -1.256,-2.2291 C 19.2328,12.5722 19,11.7377 19,11 V 7.99975 C 19,5.23824 16.7613,2.99999 14,2.99999 h -0.5 v -1 c 0,-0.55228 -0.4477,-0.999998 -1,-0.999998 z M 12,19.5 c 0.5113,0 1.0122,-0.0102 1.4997,-0.0285 0.0079,0.8043 -0.6456,1.485 -1.4562,1.485 -0.8088,0 -1.4632,-0.6787 -1.4563,-1.4819 C 11.0473,19.491 11.5191,19.5 12,19.5 Z M 9.99998,4.99999 c -1.65693,0 -3,1.34298 -3,2.99976 V 11 c 0,1.1234 -0.34451,2.2463 -0.7712,3.2186 -0.43074,0.9814 -0.9735,1.8725 -1.43279,2.5489 -0.01021,0.015 -0.01497,0.0294 -0.01658,0.0438 -0.00144,0.0129 -2.2e-4,0.0249 0.00226,0.0345 C 6.3644,17.1303 9.00044,17.5 12,17.5 c 2.9995,0 5.6356,-0.3697 7.2183,-0.6542 0.0025,-0.0096 0.0037,-0.0216 0.0023,-0.0345 C 19.2189,16.7969 19.2142,16.7825 19.204,16.7675 18.7447,16.0911 18.2019,15.2 17.7712,14.2186 17.3445,13.2463 17,12.1234 17,11 V 7.99975 C 17,6.34297 15.6569,4.99999 14,4.99999 Z"
     fill="#0f0f0f"
     id="path1" />
  <path
     fill-rule="evenodd"
     clip-rule="evenodd"
     d="m 16.0299,0.757457 c 0.1323,-0.529389 0.6847,-0.859926 1.2138,-0.7273229 0.0694,0.0174748 0.1352,0.0368391 0.2479,0.0747519 0.1379,0.046372 0.3267,0.116593 0.5508,0.217212 0.447,0.200696 1.0427,0.526029 1.6558,1.030962 C 20.9431,2.37831 22.2161,4.1113 22.495,6.9005 22.55,7.45005 22.149,7.94009 21.5995,7.99504 21.05,8.05 20.5599,7.64905 20.505,7.09951 20.2839,4.88869 19.3068,3.62168 18.4268,2.89692 17.9774,2.52686 17.5418,2.28969 17.2232,2.14664 17.0645,2.07538 16.9369,2.02841 16.8541,2.00057 16.8201,1.98913 16.7859,1.97833 16.7513,1.96858 16.2192,1.83203 15.8964,1.2912 16.0299,0.757457 Z"
     fill="#ffffff"
     id="path2" />
  <path
     fill-rule="evenodd"
     clip-rule="evenodd"
     d="M 7.97014,0.757457 C 7.83619,0.221662 7.29326,-0.104099 6.75746,0.0298498 6.68765,0.0473468 6.62176,0.066766 6.5084,0.104885 6.37051,0.151257 6.1817,0.221478 5.9576,0.322097 5.51059,0.522793 4.91493,0.848125 4.30179,1.35306 3.05685,2.37831 1.78388,4.1113 1.50496,6.90049 1.45001,7.45003 1.85095,7.94008 2.40049,7.99503 2.95004,8.04998 3.44008,7.64904 3.49504,7.0995 3.71612,4.88869 4.69315,3.62168 5.57321,2.89692 6.02257,2.52686 6.45815,2.28969 6.77678,2.14664 6.93548,2.07538 7.06308,2.02841 7.14589,2.00057 7.17991,1.98913 7.21413,1.97833 7.24867,1.96858 7.78081,1.83203 8.10358,1.2912 7.97014,0.757457 Z"
     fill="#ffffff"
     id="path3" />
  <path
     style="fill:#ffffff;stroke:#db0e13;stroke-width:0.0575586"
     d="M 11.519084,22.949058 C 10.471403,22.776244 9.5793078,22.169697 9.0397968,21.263359 8.73615,20.753254 8.553435,20.091825 8.553435,19.502725 V 19.34334 L 8.4103053,19.329921 C 7.0923585,19.206359 6.1161639,19.082235 4.9580154,18.890959 4.0892094,18.74747 3.8374065,18.658199 3.4904256,18.370657 3.2157345,18.143022 2.9815811,17.772113 2.8733165,17.39313 2.8106249,17.173676 2.7879516,16.729163 2.8270781,16.48662 2.8853554,16.125361 2.9782332,15.921242 3.3315837,15.377863 4.1068617,14.185645 4.6425405,13.039647 4.8677073,12.091574 4.9904454,11.574781 4.9853457,11.670872 5.0032194,9.5381679 5.0210823,7.4067336 5.0200848,7.4259693 5.1410016,6.8816793 5.1675837,6.7620228 5.2239327,6.5604741 5.2662213,6.4337937 5.7667077,4.9345215 6.951033,3.756918 8.4521511,3.2659461 9.0143655,3.082062 9.4815654,3.0114504 10.136014,3.0114504 H 10.5 l 7.08e-4,-0.4751908 c 3.9e-4,-0.261355 0.01065,-0.552481 0.0228,-0.6469466 0.04387,-0.3409718 0.251027,-0.629231 0.561089,-0.7807498 l 0.159675,-0.078029 H 12 12.755725 l 0.159675,0.078029 c 0.310062,0.1515188 0.51722,0.439778 0.561088,0.7807498 0.01215,0.094466 0.02242,0.3855916 0.0228,0.6469466 L 13.5,3.0114504 h 0.363986 c 0.654449,0 1.121648,0.070612 1.683863,0.2544957 1.631615,0.5336541 2.877656,1.8701187 3.285691,3.5241303 0.146334,0.5931816 0.144316,0.5591595 0.162964,2.7480915 0.01835,2.1545731 0.01202,2.0419661 0.145898,2.5928621 0.23336,0.960237 0.792632,2.135318 1.602177,3.366313 0.368719,0.560675 0.468655,0.885723 0.443725,1.443246 -0.01453,0.325001 -0.06601,0.532738 -0.200089,0.807502 -0.22974,0.470791 -0.598266,0.795487 -1.094212,0.964074 -0.413924,0.140704 -2.262982,0.418685 -3.714614,0.558441 -0.708608,0.06822 -0.641221,0.04787 -0.641221,0.193654 0,0.74735 -0.259702,1.524663 -0.709419,2.12336 -0.514757,0.685281 -1.202251,1.125063 -2.073024,1.326087 -0.265324,0.06125 -0.959338,0.08109 -1.236641,0.03535 z m 0.973282,-2.052269 c 0.233899,-0.07816 0.386215,-0.176103 0.584477,-0.375835 C 13.345546,20.250258 13.5,19.906666 13.5,19.579614 v -0.131332 l -0.138632,0.01569 c -0.179682,0.02033 -2.607266,0.01992 -2.715889,-4.62e-4 l -0.08283,-0.01554 0.01524,0.134796 c 0.02617,0.231487 0.06124,0.357618 0.152099,0.54701 0.195287,0.407066 0.563135,0.70559 0.988907,0.802539 0.203634,0.04637 0.580163,0.02908 0.773476,-0.03552 z m 0.89313,-3.412328 c 1.77448,-0.06726 3.560027,-0.248515 5.330153,-0.541064 0.454391,-0.0751 0.509542,-0.08889 0.509542,-0.127435 0,-0.02377 -0.05009,-0.11747 -0.111319,-0.208218 -0.569119,-0.843549 -1.172919,-1.972374 -1.500533,-2.8053 -0.328225,-0.834481 -0.528086,-1.656 -0.585863,-2.408167 -0.01326,-0.172609 -0.0237,-1.048461 -0.02375,-1.9923661 -9e-5,-1.869102 -0.0032,-1.9179057 -0.148437,-2.3521428 C 16.50479,6.0019539 15.626435,5.2403613 14.529639,5.0332746 14.33062,4.9956978 14.124623,4.9923663 12,4.9923663 c -2.1246231,0 -2.3306205,0.00333 -2.529639,0.040908 C 8.3940429,5.2364946 7.5200814,5.9805591 7.1605044,6.9998166 7.0066386,7.435965 7.0129689,7.3398732 6.996297,9.4923663 6.9801954,11.571286 6.9757755,11.659059 6.8583411,12.232003 c -0.2687187,1.311041 -0.9056943,2.742571 -1.8919752,4.252 -0.1053561,0.16124 -0.1915566,0.31176 -0.1915566,0.33449 0,0.03625 0.071023,0.05293 0.578244,0.135771 1.76259,0.287881 3.8114895,0.491033 5.4217557,0.537576 0.595003,0.0172 2.072506,0.01302 2.610687,-0.0074 z"
     id="path4" />
</svg>
