<?xml version="1.0" encoding="UTF-8" standalone="no"?>
<!-- Uploaded to: SVG Repo, www.svgrepo.com, Generator: SVG Repo Mixer Tools -->

<svg
   width="800"
   height="800"
   viewBox="0 0 24 24"
   fill="#ffffff"
   version="1.1"
   id="svg7"
   xmlns="http://www.w3.org/2000/svg"
   xmlns:svg="http://www.w3.org/2000/svg">
  <defs
     id="defs7" />
  <path
     d="M 22,22 H 2"
     stroke="#1c274c"
     stroke-width="1.5"
     stroke-linecap="round"
     id="path1" />
  <path
     d="M 2,11 6.06296,7.74968 M 22,11 13.8741,4.49931 c -1.0957,-0.87652 -2.6525,-0.87652 -3.7482,0 L 9.34398,5.12486"
     stroke="#1c274c"
     stroke-width="1.5"
     stroke-linecap="round"
     id="path2" />
  <path
     d="m 15.5,5.5 v -2 C 15.5,3.22386 15.7239,3 16,3 h 2.5 C 18.7761,3 19,3.22386 19,3.5 v 5"
     stroke="#1c274c"
     stroke-width="1.5"
     stroke-linecap="round"
     id="path3" />
  <path
     d="M 4,22 V 9.5"
     stroke="#1c274c"
     stroke-width="1.5"
     stroke-linecap="round"
     id="path4" />
  <path
     d="m 20,9.5 v 4 m 0,8.5 v -4.5"
     stroke="#1c274c"
     stroke-width="1.5"
     stroke-linecap="round"
     id="path5" />
  <path
     d="M 15,22 V 17 C 15,15.5858 15,14.8787 14.5607,14.4393 14.1213,14 13.4142,14 12,14 10.5858,14 9.87868,14 9.43934,14.4393 M 9,22 v -5"
     stroke="#1c274c"
     stroke-width="1.5"
     stroke-linecap="round"
     stroke-linejoin="round"
     id="path6" />
  <path
     d="m 14,9.5 c 0,1.1046 -0.8954,2 -2,2 -1.1046,0 -2,-0.8954 -2,-2 0,-1.10457 0.8954,-2 2,-2 1.1046,0 2,0.89543 2,2 z"
     stroke="#1c274c"
     stroke-width="1.5"
     id="path7" />
  <path
     style="fill:#ffffff;stroke:#db0e13;stroke-width:0.0575586"
     d="m 2.8740458,22.729008 -1.0877863,-0.01145 -0.1145038,-0.061 C 1.5187569,22.575053 1.4009826,22.448519 1.326692,22.28583 1.272233,22.166571 1.266622,22.131266 1.27574,21.965219 1.291746,21.673708 1.4282162,21.461883 1.6795299,21.338468 l 0.1296308,-0.06366 0.7270992,-0.0069 0.7270994,-0.0069 v -5.16569 -5.165691 l -0.097328,0.07879 c -0.4781338,0.387059 -0.7779757,0.616716 -0.8645038,0.662147 -0.084668,0.04445 -0.1377825,0.05416 -0.2977099,0.05438 -0.1668344,2.4e-4 -0.2131845,-0.0088 -0.3242873,-0.06338 -0.2513137,-0.123415 -0.3877836,-0.33524 -0.4037899,-0.626751 -0.00912,-0.166181 -0.00354,-0.201247 0.051079,-0.320544 0.033728,-0.07367 0.083916,-0.158691 0.1115277,-0.18893 C 1.4659581,10.495068 2.4375577,9.7106346 3.5974566,8.782122 5.9270052,6.9172914 5.8031433,7.0038954 6.1117338,7.0241364 6.3043782,7.0367724 6.460668,7.1076849 6.5883471,7.2403878 6.8455674,7.5077289 6.8614776,7.942434 6.6242511,8.221374 6.5921157,8.2591602 6.1526775,8.6198472 5.647722,9.0229008 l -0.9181005,0.7328244 -3.06e-4,5.7538168 -3.06e-4,5.753817 h 1.762809 1.7628087 l 0.00628,-2.215649 0.00628,-2.215649 0.060718,-0.129512 c 0.071662,-0.152857 0.2090241,-0.293529 0.3585303,-0.367171 0.154707,-0.0762 0.4724448,-0.0762 0.6271518,0 0.1495062,0.07364 0.2868684,0.214314 0.3585303,0.367171 l 0.060718,0.129512 0.00628,2.215649 0.00628,2.215649 h 2.2562484 2.256248 l -0.0086,-2.85687 c -0.0075,-2.477056 -0.0134,-2.880052 -0.04442,-3.031235 -0.06926,-0.337547 -0.166807,-0.470746 -0.391438,-0.53451 -0.287951,-0.08174 -0.506858,-0.09267 -1.836263,-0.0917 -1.664089,0.0012 -1.753863,0.01229 -2.0756014,0.255988 -0.1770576,0.13406 -0.3225246,0.178114 -0.5325354,0.161256 -0.3242961,-0.02603 -0.5909727,-0.273698 -0.6543087,-0.607667 -0.089365,-0.47122 0.3722808,-0.943299 1.1238099,-1.14921 0.4116116,-0.112777 0.5478256,-0.122013 1.9534196,-0.132445 1.400053,-0.01039 1.764202,0.0042 2.172985,0.08721 0.870513,0.176729 1.412576,0.672736 1.630452,1.491924 0.129037,0.485164 0.131303,0.542429 0.142335,3.596187 l 0.01016,2.811069 h 1.761555 1.761556 l -1.2e-4,-1.95229 c -1.2e-4,-2.251196 -0.01575,-2.084451 0.217454,-2.320735 0.160795,-0.162916 0.306727,-0.224156 0.53,-0.222414 0.262132,0.002 0.522907,0.170474 0.643199,0.415426 l 0.06366,0.129631 0.0062,1.974003 0.0062,1.974004 0.726607,0.0069 0.726607,0.0069 0.129631,0.06366 c 0.251313,0.123415 0.387783,0.33524 0.403789,0.626751 0.0091,0.166012 0.0035,0.201376 -0.05092,0.320611 -0.07894,0.172969 -0.214472,0.310045 -0.379998,0.384328 l -0.131881,0.05918 -9.099816,0.0056 c -5.0048985,0.0031 -9.5893197,4.05e-4 -10.187602,-0.0059 z"
     id="path8" />
  <path
     style="fill:#ffffff;stroke:#db0e13;stroke-width:0.0575586"
     d="m 11.736641,12.227632 c -0.03149,-0.0054 -0.129389,-0.02145 -0.217557,-0.03568 C 10.750136,12.067874 10.011846,11.541325 9.6123369,10.832061 9.1427937,9.9984624 9.1513992,8.9495796 9.6345081,8.1297711 10.299628,7.0010991 11.638681,6.4945869 12.868306,6.906549 c 1.259131,0.4218477 2.044993,1.7130225 1.834086,3.0134118 -0.184016,1.1345822 -1.034024,2.0224702 -2.167943,2.2645552 -0.163236,0.03485 -0.682324,0.0629 -0.797808,0.04312 z m 0.596989,-1.512281 c 0.445506,-0.130937 0.790004,-0.487916 0.892923,-0.9252746 0.04038,-0.171594 0.0345,-0.4702023 -0.01245,-0.6328689 -0.130323,-0.451449 -0.499342,-0.7927551 -0.96219,-0.8899314 -0.201558,-0.042318 -0.302258,-0.042318 -0.503817,0 -0.592298,0.1243548 -1.005239,0.6290466 -1.002375,1.2250902 0.0017,0.3492069 0.101074,0.6117317 0.322206,0.8510207 0.256013,0.277031 0.54969,0.40694 0.922196,0.407936 0.135116,3.6e-4 0.266814,-0.01343 0.343512,-0.03597 z"
     id="path9" />
  <path
     style="fill:#ffffff;stroke:#db0e13;stroke-width:0.0575586"
     d="m 19.737173,14.18629 c -0.153896,-0.06069 -0.302234,-0.193413 -0.3868,-0.34609 l -0.06793,-0.122643 -0.01145,-1.984324 -0.01145,-1.9843241 -2.934971,-2.3480682 C 14.710337,6.1094037 13.327909,5.010663 13.252508,4.959195 13.068979,4.8339189 12.817452,4.7200416 12.582439,4.6558248 12.416101,4.6103733 12.335312,4.6030533 12,4.6030533 c -0.438873,0 -0.625953,0.036418 -0.945491,0.1840533 -0.225008,0.1039602 -0.358841,0.197544 -0.894338,0.6253755 C 9.9125349,5.6103285 9.6790077,5.7848079 9.6412215,5.8002141 9.4404024,5.8820901 9.1907604,5.8739199 9.0055014,5.7794079 8.8078761,5.6785869 8.6439729,5.4413826 8.6102154,5.2073406 8.5906974,5.072022 8.6465478,4.8481401 8.7315945,4.7207793 8.79912,4.6196574 9.5498352,3.9993558 9.8816793,3.7704861 10.980821,3.0124188 12.369223,2.8950116 13.58157,3.4576125 c 0.274252,0.1272693 0.532775,0.2949396 0.874382,0.5670996 0.154209,0.1228587 0.285603,0.2233794 0.291985,0.2233794 0.0064,0 0.0116,-0.1887561 0.0116,-0.4194582 0,-0.2307018 0.01109,-0.4806066 0.02463,-0.5553435 0.08556,-0.4719668 0.49032,-0.8814793 0.971549,-0.9829633 0.23213,-0.048953 2.764173,-0.04981 2.994442,-0.00101 0.334007,0.070779 0.679968,0.328056 0.834997,0.6209531 0.150171,0.2837198 0.143808,0.157007 0.144196,2.871263 l 3.51e-4,2.4627459 1.333617,1.0648428 c 0.73349,0.5856639 1.381233,1.1088217 1.43943,1.1625737 0.06545,0.06045 0.129813,0.151209 0.168736,0.237942 0.05617,0.12516 0.06183,0.160157 0.05272,0.325977 -0.01596,0.290627 -0.152725,0.50265 -0.403746,0.625922 -0.11114,0.05458 -0.157397,0.06361 -0.324288,0.06334 -0.254089,-4.2e-4 -0.307035,-0.02918 -0.835878,-0.454011 l -0.412213,-0.331143 -0.01145,1.377471 -0.01145,1.377471 -0.05671,0.114503 c -0.07248,0.146362 -0.211183,0.284946 -0.356105,0.355804 -0.157293,0.07691 -0.410458,0.08629 -0.575207,0.02133 z M 18.263359,5.4045801 V 3.7442748 H 17.255725 16.248091 V 4.6008033 5.4573315 L 17.25,6.2602368 c 0.55105,0.4415982 1.004485,0.8032977 1.007634,0.8037771 0.0031,4.8e-4 0.0057,-0.7462659 0.0057,-1.6594338 z"
     id="path10" />
</svg>
