<?xml version="1.0" encoding="UTF-8" standalone="no"?>
<!-- Uploaded to: SVG Repo, www.svgrepo.com, Generator: SVG Repo Mixer Tools -->

<svg
   width="800"
   height="800"
   viewBox="0 0 24 24"
   id="Layer_1"
   data-name="Layer 1"
   version="1.1"
   xmlns="http://www.w3.org/2000/svg"
   xmlns:svg="http://www.w3.org/2000/svg">
  <defs
     id="defs1">
    <style
       id="style1">.cls-1{fill:none;stroke:#020202;stroke-miterlimit:10;stroke-width:1.91px;}</style>
  </defs>
  <circle
     class="cls-1"
     cx="9.1400003"
     cy="9.1400003"
     r="7.6399999"
     id="circle1" />
  <line
     class="cls-1"
     x1="22.5"
     y1="22.5"
     x2="14.39"
     y2="14.39"
     id="line1" />
  <path
     style="fill:#ffffff;stroke:#db0e13;stroke-width:0.0575586"
     d="m 18.163464,19.503158 -3.660794,-3.660847 -0.1979,0.149599 c -1.046516,0.791093 -2.287509,1.338834 -3.587213,1.5833 -0.513276,0.09655 -0.7519527,0.118735 -1.4083968,0.130945 C 8.614935,17.719067 8.2591239,17.695434 7.68903,17.598546 4.4381478,17.046052 1.7685032,14.633798 0.86956557,11.436571 0.64294791,10.630567 0.54492135,9.8077905 0.56835588,8.9083968 0.58765227,8.1678207 0.6625443,7.637601 0.84653739,6.9389313 1.6262054,3.9783285 3.9783285,1.6262054 6.9389313,0.84653739 7.637601,0.6625443 8.1678207,0.58765227 8.9083968,0.56835588 10.333079,0.53123451 11.58745,0.79854264 12.852207,1.408787 c 0.603913,0.291388 1.156127,0.6375391 1.666877,1.0448703 0.315809,0.2518627 1.042265,0.9756523 1.285247,1.2805294 1.08231,1.35801 1.694238,2.8489542 1.876963,4.573164 0.04601,0.4341834 0.03302,1.511265 -0.02299,1.9063903 -0.180036,1.269985 -0.56731,2.370496 -1.194922,3.3956 -0.165607,0.270491 -0.39607,0.605043 -0.532043,0.772338 l -0.09306,0.114504 3.662983,3.664208 3.662984,3.664209 -0.669992,0.669703 -0.669992,0.669703 z m -8.064227,-3.736527 c 1.133687,-0.167159 2.171285,-0.601611 3.096484,-1.296526 0.296775,-0.222907 0.795746,-0.695539 1.048345,-0.993006 0.814445,-0.959112 1.332479,-2.109972 1.525623,-3.389313 0.07457,-0.4939207 0.07629,-1.4098015 0.0035,-1.8781498 C 15.642774,7.3699752 15.408305,6.6519222 15.040931,5.9670246 14.888201,5.6822913 14.572898,5.2071819 14.35611,4.9351146 14.156585,4.6847124 13.59032,4.118418 13.339695,3.9186456 11.910977,2.7798229 10.116046,2.2746633 8.293305,2.4984059 6.1096191,2.7664546 4.1698302,4.132089 3.1731534,6.1030533 2.3632748,7.704618 2.2227126,9.5146662 2.7756822,11.221374 c 0.2428821,0.749641 0.6255063,1.46039 1.1280465,2.09542 0.2253672,0.284783 0.7574919,0.820622 1.0313859,1.038585 1.0500252,0.835605 2.2481478,1.319482 3.60687,1.456679 0.3534948,0.03569 1.1682786,0.01193 1.5572524,-0.04543 z"
     id="path1" />
</svg>
