<?xml version="1.0" encoding="UTF-8" standalone="no"?>
<!-- Uploaded to: SVG Repo, www.svgrepo.com, Generator: SVG Repo Mixer Tools -->

<svg
   fill="#000000"
   height="800"
   width="800"
   version="1.1"
   id="Layer_1"
   viewBox="0 0 512 512"
   xml:space="preserve"
   xmlns="http://www.w3.org/2000/svg"
   xmlns:svg="http://www.w3.org/2000/svg"><defs
   id="defs17" />
<g
   id="g2">
	<g
   id="g1">
		<ellipse
   cx="68.255997"
   cy="125.052"
   rx="13.184"
   ry="13.168"
   id="ellipse1" />
	</g>
</g>
<g
   id="g4">
	<g
   id="g3">
		<ellipse
   cx="103.208"
   cy="125.052"
   rx="13.184"
   ry="13.168"
   id="ellipse2" />
	</g>
</g>
<g
   id="g6">
	<g
   id="g5">
		<ellipse
   cx="138.16"
   cy="125.052"
   rx="13.184"
   ry="13.168"
   id="ellipse4" />
	</g>
</g>
<g
   id="g8">
	<g
   id="g7">
		<polygon
   points="456.928,146.916 456.928,104.34 202.024,104.34 174.216,146.916 "
   id="polygon6" />
	</g>
</g>
<g
   id="g10">
	<g
   id="g9">
		<path
   d="M 488,49.332 H 24 c -13.2,0 -24,10.8 -24,24 v 365.336 c 0,13.2 10.8,24 24,24 h 464 c 13.2,0 24,-10.8 24,-24 V 73.332 c 0,-13.2 -10.8,-24 -24,-24 z M 480,421.916 457.856,405.1 h -63.632 l 33.544,25.568 H 400.064 L 366.4,405.1 H 145.592 l -33.664,25.568 H 84.224 L 117.768,405.1 H 54.144 L 32,421.916 V 81.332 h 448 z"
   id="path8" />
	</g>
</g>
<g
   id="g13">
	<g
   id="g12">
		<g
   id="g11">
			<polygon
   points=""
   id="polygon10" />
			<path
   d="m 183.784,232.484 -10.408,44.624 c -0.672,2.688 -1.416,6.2 -2.232,10.536 -0.824,4.344 -1.416,7.968 -1.792,10.88 -0.416,-3.024 -1.008,-6.64 -1.792,-10.848 -0.784,-4.208 -1.44,-7.344 -1.96,-9.4 l -11.904,-45.8 h -16.392 l -11.904,45.8 c -0.712,2.464 -1.472,5.92 -2.264,10.376 -0.808,4.464 -1.312,7.752 -1.536,9.872 -0.824,-6.04 -2.152,-13.176 -3.968,-21.424 L 107.168,232.476 H 90.104 l 20.856,81.76 h 19.688 l 11.016,-42.832 c 0.488,-1.896 1.168,-5.08 2.072,-9.528 0.888,-4.464 1.456,-7.696 1.672,-9.704 0.152,1.64 0.72,4.848 1.712,9.64 0.984,4.8 1.68,7.952 2.096,9.488 l 11.072,42.944 h 19.744 l 20.808,-81.76 z"
   id="path10" />
		</g>
	</g>
</g>
<g
   id="g15">
	<g
   id="g14">
		<path
   d="M 294.512,232.476 284.104,277.1 c -0.672,2.688 -1.416,6.2 -2.232,10.536 -0.824,4.344 -1.416,7.968 -1.792,10.88 -0.416,-3.024 -1.008,-6.64 -1.792,-10.848 -0.784,-4.208 -1.44,-7.344 -1.96,-9.4 l -11.904,-45.8 h -16.392 l -11.904,45.8 c -0.712,2.464 -1.472,5.92 -2.264,10.376 -0.808,4.464 -1.312,7.752 -1.536,9.872 -0.824,-6.04 -2.152,-13.176 -3.968,-21.424 L 217.896,232.468 H 200.84 l 20.856,81.76 h 19.68 v 0 l 11.016,-42.832 c 0.488,-1.896 1.168,-5.08 2.072,-9.528 0.888,-4.464 1.456,-7.696 1.672,-9.704 0.152,1.64 0.72,4.848 1.712,9.64 0.984,4.8 1.68,7.952 2.096,9.488 l 11.072,42.944 h 19.744 l 20.808,-81.76 z"
   id="path13" />
	</g>
</g>
<g
   id="g17">
	<g
   id="g16">
		<path
   d="M 405.24,232.476 394.832,277.1 c -0.672,2.688 -1.416,6.2 -2.232,10.536 -0.824,4.344 -1.416,7.968 -1.792,10.88 -0.416,-3.024 -1.008,-6.64 -1.792,-10.848 -0.784,-4.208 -1.44,-7.344 -1.96,-9.4 l -11.904,-45.8 H 358.76 l -11.904,45.8 c -0.712,2.464 -1.472,5.92 -2.264,10.376 -0.808,4.464 -1.312,7.752 -1.536,9.872 -0.824,-6.04 -2.152,-13.176 -3.968,-21.424 l -10.464,-44.624 h -17.056 l 20.856,81.76 h 19.68 v 0 l 11.016,-42.832 c 0.488,-1.896 1.168,-5.08 2.072,-9.528 0.888,-4.464 1.456,-7.696 1.672,-9.704 0.152,1.64 0.72,4.848 1.712,9.64 0.984,4.8 1.68,7.952 2.096,9.488 l 11.072,42.944 h 19.744 l 20.808,-81.76 H 405.24 Z"
   id="path15" />
	</g>
</g>
<path
   style="fill:#ffffff;stroke:#db0e13;stroke-width:1.22792"
   d="m 178.23707,141.31298 c 1.96599,-3.02291 8.13968,-12.47634 13.7193,-21.00764 l 10.14478,-15.51145 h 127.22424 127.22423 v 21.00764 21.00763 H 315.60608 174.66254 Z"
   id="path17" /><path
   style="fill:#ffffff;stroke:#db0e13;stroke-width:1.22792"
   d="M 18.42116,461.65172 C 9.6981216,459.3038 3.2638038,452.79204 0.97176928,443.99233 0.33366776,441.5425 0.24427481,418.44239 0.24427481,256 0.24427481,93.5576 0.33366776,70.457504 0.97176928,68.007667 3.2912376,59.102627 9.7462323,52.638105 18.628913,50.32446 21.130504,49.672879 48.548934,49.587786 256,49.587786 c 207.45107,0 234.8695,0.08509 237.37107,0.736674 8.92272,2.324064 15.32727,8.738064 17.65715,17.683207 0.6381,2.449837 0.7275,25.549933 0.7275,187.992333 0,162.44239 -0.0894,185.5425 -0.7275,187.99233 -2.32222,8.91563 -8.77674,15.37016 -17.69238,17.69239 -4.1322,1.0763 -470.913896,1.04387 -474.91468,-0.033 z M 129.1933,417.9542 145.92703,405.25191 h 110.1108 110.1108 l 16.69541,12.70229 16.6954,12.70229 h 14.09288 c 7.75108,0 14.09287,-0.0979 14.09287,-0.21765 0,-0.1197 -7.30993,-5.78077 -16.24427,-12.58015 l -16.24428,-12.3625 31.1784,-0.12578 31.17841,-0.12576 11.20327,8.52981 L 480,422.30426 V 251.82388 81.343514 H 256 32 V 251.8894 422.43528 l 3.053435,-2.39557 c 1.679389,-1.31757 6.72308,-5.18383 11.2082,-8.59169 l 8.154766,-6.19611 h 31.346261 31.346258 l -15.80637,12.01602 c -8.6935,6.60881 -16.128284,12.32484 -16.521744,12.70229 -0.615014,0.59 1.276314,0.68627 13.481703,0.68627 h 14.197071 z"
   id="path18" /><path
   style="fill:#ffffff;stroke:#db0e13;stroke-width:1.22792"
   d="m 135.08397,137.58749 c -6.59431,-2.17015 -10.219,-7.36484 -9.63475,-13.80797 0.62997,-6.94742 6.94761,-12.22269 13.79189,-11.51629 10.59503,1.0935 15.52013,13.48727 8.4204,21.18956 -1.11639,1.21115 -2.90316,2.64764 -3.9706,3.1922 -2.11915,1.08112 -6.6711,1.57957 -8.60694,0.9425 z"
   id="path19" /><path
   style="fill:#ffffff;stroke:#db0e13;stroke-width:1.22792"
   d="m 99.905235,137.5588 c -5.925536,-1.80247 -10.436934,-8.3539 -9.554157,-13.87449 2.007373,-12.55339 17.698362,-15.68522 24.092152,-4.80865 1.1627,1.97788 1.34303,2.80943 1.34303,6.19304 0,3.38361 -0.18033,4.21516 -1.34303,6.19304 -3.02478,5.1455 -9.33635,7.87932 -14.537995,6.29706 z"
   id="path20" /><path
   style="fill:#ffffff;stroke:#db0e13;stroke-width:1.22792"
   d="m 64.244275,137.26457 c -4.922809,-1.52856 -8.288212,-5.98038 -8.68205,-11.48477 -0.21114,-2.95097 -0.07793,-3.70179 1.074723,-6.05774 3.229925,-6.60173 10.977612,-9.39967 17.215801,-6.21718 2.527833,1.2896 5.734073,4.81956 6.546969,7.20798 0.861248,2.53048 0.779994,6.84834 -0.171046,9.0897 -1.258362,2.96566 -4.516736,6.10187 -7.498694,7.21756 -3.060071,1.14492 -5.371271,1.2115 -8.485703,0.24445 z"
   id="path21" /><path
   style="fill:#ffffff;stroke:#db0e13;stroke-width:1.22792"
   d="m 110.95415,313.03817 c -0.51893,-1.7281 -20.328198,-79.60936 -20.328198,-79.92146 0,-0.17755 3.682445,-0.32216 8.183206,-0.32136 l 8.183202,10e-4 5.51273,23.57106 c 3.03199,12.96409 6.17797,27.19854 6.99106,31.63213 2.24105,12.21992 2.00468,12.00346 3.51101,3.2153 1.05167,-6.13563 10.14715,-42.79081 13.86003,-55.85652 l 0.72886,-2.56488 h 8.0264 c 4.41452,0 8.02641,0.11658 8.02641,0.25908 0,0.1425 2.83049,11.19073 6.28998,24.55163 3.47563,13.4233 6.89,27.78913 7.63103,32.10733 1.64031,9.55861 1.75286,9.89592 2.28158,6.83768 1.5951,-9.2265 3.60099,-18.56397 8.4895,-39.51888 3.06466,-13.13691 5.65668,-23.96984 5.76003,-24.07319 0.10335,-0.10335 3.81397,-0.12749 8.24584,-0.0536 l 8.05794,0.13426 -10.26875,40.42748 -10.26874,40.42749 h -9.65643 c -8.77236,0 -9.68013,-0.0783 -9.91517,-0.85497 -0.14229,-0.47023 -2.78507,-10.64099 -5.87282,-22.60169 -5.28919,-20.48816 -8.57694,-34.8803 -8.58654,-37.58762 -0.008,-2.30999 -0.81587,-0.24268 -1.42199,3.63969 -0.96657,6.19111 -2.60823,13.17428 -8.47035,36.03054 l -5.48196,21.37405 h -9.62556 c -8.7437,0 -9.64909,-0.0783 -9.8823,-0.85497 z"
   id="path22" /><path
   style="fill:#ffffff;stroke:#db0e13;stroke-width:1.22792"
   d="m 221.79245,313.29281 c -0.47757,-1.28597 -20.26573,-79.27882 -20.26573,-79.87513 0,-0.48075 1.84406,-0.62379 8.04223,-0.62379 h 8.04224 l 0.48398,1.83206 c 3.27461,12.39587 12.01835,51.59849 13.21213,59.23665 0.31497,2.01526 0.69228,3.99389 0.83847,4.39694 0.14619,0.40306 0.89226,-2.89466 1.65795,-7.32824 0.76568,-4.43359 2.2516,-11.35878 3.30204,-15.38932 1.05044,-4.03053 3.97259,-15.30142 6.49366,-25.04641 l 4.58379,-17.71817 8.05655,0.13038 8.05654,0.13039 5.74669,21.98473 c 5.26097,20.12656 8.51167,34.35759 9.42991,41.28244 0.4685,3.53326 0.78259,2.66937 2.39786,-6.59541 0.70271,-4.03054 3.86443,-18.43054 7.02605,-32 l 5.74841,-24.67176 8.1583,-0.13395 c 6.35855,-0.1044 8.1556,0.003 8.14605,0.48855 -0.007,0.34237 -4.58389,18.54006 -10.17143,40.43929 l -10.15914,39.8168 h -9.73698 -9.73698 l -5.73424,-22.22901 c -3.15383,-12.22596 -6.41033,-25.63664 -7.23666,-29.80153 -0.82633,-4.16489 -1.62655,-8.12213 -1.77827,-8.79389 -0.18062,-0.79971 -0.69143,1.05563 -1.47959,5.37404 -0.66205,3.62748 -3.30194,14.8397 -5.86643,24.91603 -2.56448,10.07634 -5.36113,21.06871 -6.21477,24.42748 l -1.55207,6.10688 -9.62996,0.1325 c -7.44012,0.10237 -9.68241,-0.009 -9.8606,-0.48855 z"
   id="path23" /><path
   style="fill:#ffffff;stroke:#db0e13;stroke-width:1.22792"
   d="m 331.75612,310.59542 c -1.544,-6.2042 -19.36957,-76.08997 -19.62655,-76.94656 -0.23726,-0.79088 0.36857,-0.85497 8.08178,-0.85497 4.58605,0 8.33827,0.12065 8.33827,0.26811 0,0.14746 2.40845,10.53525 5.35211,23.08397 5.22996,22.2952 7.10832,31.02452 8.37858,38.938 0.72951,4.5447 0.74995,4.50116 2.40775,-5.12977 0.57816,-3.35878 3.9988,-17.48607 7.60142,-31.39397 3.60262,-13.90791 6.55021,-25.39493 6.55021,-25.52672 0,-0.13179 3.61267,-0.23962 8.02815,-0.23962 7.22061,0 8.05443,0.086 8.28945,0.85497 0.14372,0.47022 2.89899,11.01323 6.12282,23.42891 4.99565,19.23932 6.71436,26.77948 9.10861,39.9604 l 0.35498,1.95419 0.38452,-1.70992 c 0.21148,-0.94046 0.84862,-4.34809 1.41587,-7.57251 0.56724,-3.22443 3.69955,-17.34962 6.96069,-31.38932 l 5.92934,-25.52672 h 8.27122 8.27122 l -0.2971,1.09924 c -0.1634,0.60458 -4.70734,18.46718 -10.09766,39.69466 -5.3903,21.22747 -9.91386,38.98015 -10.05234,39.45038 -0.2289,0.77723 -1.13713,0.85496 -9.98986,0.85496 -5.35594,0 -9.73807,-0.13306 -9.73807,-0.2957 0,-0.16263 -2.54105,-10.11072 -5.64678,-22.10686 -3.10573,-11.99615 -6.45522,-25.86075 -7.44332,-30.81021 -1.37913,-6.90816 -1.87465,-8.66759 -2.13272,-7.57252 -0.18489,0.78458 -1.01548,4.89264 -1.84575,9.12901 -0.83027,4.23638 -4.03484,17.50448 -7.12127,29.48468 C 354.52526,303.70172 352,313.59132 352,313.69841 c 0,0.1071 -4.37022,0.19472 -9.7116,0.19472 h -9.71159 z"
   id="path24" /></svg>
